# xmcd CD database file
#
# Track frame offsets:
#	150
#	25865
#	62910
#	332550
#
# Disc length: 4440 seconds
#
# Revision: 0
# Processed by: cddbd v1.5PL3 Copyright (c) Steve Scherf et al.
# Submitted via: CDex 1.51
#
DISCID=2f115604
DTITLE=Skoop On Somebody - Smile Again
DYEAR=2003
DGENRE=JPop
TTITLE0=Smile Again
TTITLE1=Smile Again (Less Vocal)
TTITLE2=data
TTITLE3=data
EXTD=YEAR: 2003
EXTT0=
EXTT1=
EXTT2=
EXTT3=
PLAYORDER=
